<?xml version="1.0" standalone="no"?>
<!DOCTYPE svg PUBLIC "-//W3C//DTD SVG 20010904//EN"
 "http://www.w3.org/TR/2001/REC-SVG-20010904/DTD/svg10.dtd">
<svg version="1.0" xmlns="http://www.w3.org/2000/svg"
 width="120.000000pt" height="120.000000pt" viewBox="0 0 120.000000 120.000000"
 preserveAspectRatio="xMidYMid meet">
<metadata>
Created by potrace 1.14, written by Peter Selinger 2001-2017
</metadata>
<g transform="translate(0.000000,120.000000) scale(0.100000,-0.100000)"
fill="#000000" stroke="none">
<path d="M563 1178 c-32 -36 -35 -46 -22 -70 16 -30 28 -38 61 -38 53 0 76 70
35 108 -30 28 -48 28 -74 0z"/>
<path d="M543 1023 c-10 -4 -13 -116 -13 -514 l0 -510 66 3 65 3 -1 443 -1
442 23 0 c34 -1 99 -33 141 -69 48 -43 92 -123 107 -194 23 -112 -17 -190
-123 -243 -56 -29 -71 -44 -57 -58 9 -9 74 17 85 34 9 14 25 12 25 -3 0 -13
-76 -57 -98 -57 -8 0 -12 -6 -9 -12 5 -17 35 -11 68 13 36 25 37 24 35 -13 -1
-26 -8 -36 -36 -49 -19 -10 -43 -20 -52 -23 -10 -3 -18 -11 -18 -17 0 -16 47
-2 73 21 21 21 37 26 37 13 -1 -18 -18 -33 -62 -52 -47 -20 -65 -36 -50 -45
13 -8 103 39 149 78 96 83 163 229 163 356 -1 212 -164 411 -370 450 -55 10
-126 12 -147 3z"/>
<path d="M386 977 c-139 -77 -246 -254 -246 -406 0 -110 53 -234 138 -323 54
-57 133 -108 168 -108 18 0 14 20 -7 31 -8 4 -31 15 -52 25 -21 11 -41 23 -44
27 -11 18 7 17 41 -3 20 -11 43 -20 51 -20 30 0 14 16 -40 39 -51 22 -55 26
-55 58 l0 34 45 -26 c49 -27 65 -31 65 -15 0 5 -17 17 -37 25 -55 23 -85 44
-78 56 4 5 19 1 36 -11 31 -23 77 -31 80 -15 1 6 -26 26 -61 46 -35 20 -75 51
-89 69 -23 30 -26 42 -25 114 0 63 5 92 23 128 28 58 93 133 132 154 27 14 29
18 29 79 0 75 -7 79 -74 42z"/>
<path d="M380 273 c0 -8 47 -33 62 -33 4 0 8 5 8 10 0 6 -9 10 -19 10 -11 0
-23 5 -26 10 -7 12 -25 13 -25 3z"/>
<path d="M805 270 c-3 -5 -15 -10 -26 -10 -10 0 -19 -4 -19 -10 0 -5 4 -10 8
-10 15 0 62 25 62 33 0 10 -18 9 -25 -3z"/>
</g>
</svg>
